<mxfile host="app.diagrams.net" modified="2020-10-12T06:42:16.358Z" agent="5.0 (Windows NT 10.0; Win64; x64) AppleWebKit/537.36 (KHTML, like Gecko) Chrome/85.0.4183.121 Safari/537.36" etag="p4P_E2OY7gduSuIfiKJe" version="13.7.9" type="github">
  <diagram id="o5HTqguN4TyBWtxsFD9D" name="Page-1">
    <mxGraphModel dx="589" dy="528" grid="1" gridSize="10" guides="1" tooltips="1" connect="1" arrows="1" fold="1" page="1" pageScale="1" pageWidth="827" pageHeight="1169" math="0" shadow="0">
      <root>
        <mxCell id="0" />
        <mxCell id="1" parent="0" />
        <mxCell id="fRjeeRejCwsMr5DVCLFa-1" value="" style="ellipse;whiteSpace=wrap;html=1;aspect=fixed;fillColor=#292929;" vertex="1" parent="1">
          <mxGeometry x="40" y="70" width="20" height="20" as="geometry" />
        </mxCell>
        <mxCell id="fRjeeRejCwsMr5DVCLFa-5" value="" style="group" vertex="1" connectable="0" parent="1">
          <mxGeometry x="260" y="720" width="30" height="30" as="geometry" />
        </mxCell>
        <mxCell id="fRjeeRejCwsMr5DVCLFa-3" value="" style="ellipse;whiteSpace=wrap;html=1;aspect=fixed;fillColor=#F7F7F7;" vertex="1" parent="fRjeeRejCwsMr5DVCLFa-5">
          <mxGeometry width="30" height="30" as="geometry" />
        </mxCell>
        <mxCell id="fRjeeRejCwsMr5DVCLFa-2" value="" style="ellipse;whiteSpace=wrap;html=1;aspect=fixed;fillColor=#292929;" vertex="1" parent="fRjeeRejCwsMr5DVCLFa-5">
          <mxGeometry x="5" y="5" width="20" height="20" as="geometry" />
        </mxCell>
        <mxCell id="fRjeeRejCwsMr5DVCLFa-7" value="" style="rounded=1;whiteSpace=wrap;html=1;fillColor=#FFF9E6;" vertex="1" parent="1">
          <mxGeometry x="100" y="60" width="120" height="60" as="geometry" />
        </mxCell>
        <mxCell id="fRjeeRejCwsMr5DVCLFa-8" value="" style="rounded=1;whiteSpace=wrap;html=1;fillColor=#FFF9E6;" vertex="1" parent="1">
          <mxGeometry x="1130" y="120" width="120" height="60" as="geometry" />
        </mxCell>
        <mxCell id="fRjeeRejCwsMr5DVCLFa-9" value="" style="rounded=1;whiteSpace=wrap;html=1;fillColor=#FFF9E6;" vertex="1" parent="1">
          <mxGeometry x="1140" y="130" width="120" height="60" as="geometry" />
        </mxCell>
        <mxCell id="fRjeeRejCwsMr5DVCLFa-10" value="" style="rounded=1;whiteSpace=wrap;html=1;fillColor=#FFF9E6;" vertex="1" parent="1">
          <mxGeometry x="1150" y="140" width="120" height="60" as="geometry" />
        </mxCell>
        <mxCell id="fRjeeRejCwsMr5DVCLFa-11" value="" style="rounded=1;whiteSpace=wrap;html=1;fillColor=#FFF9E6;" vertex="1" parent="1">
          <mxGeometry x="1160" y="150" width="120" height="60" as="geometry" />
        </mxCell>
        <mxCell id="fRjeeRejCwsMr5DVCLFa-12" value="" style="rounded=1;whiteSpace=wrap;html=1;fillColor=#FFF9E6;" vertex="1" parent="1">
          <mxGeometry x="1170" y="160" width="120" height="60" as="geometry" />
        </mxCell>
        <mxCell id="fRjeeRejCwsMr5DVCLFa-13" value="" style="rounded=1;whiteSpace=wrap;html=1;fillColor=#FFF9E6;" vertex="1" parent="1">
          <mxGeometry x="1180" y="170" width="120" height="60" as="geometry" />
        </mxCell>
        <mxCell id="fRjeeRejCwsMr5DVCLFa-14" value="" style="rounded=1;whiteSpace=wrap;html=1;fillColor=#FFF9E6;" vertex="1" parent="1">
          <mxGeometry x="1190" y="180" width="120" height="60" as="geometry" />
        </mxCell>
        <mxCell id="fRjeeRejCwsMr5DVCLFa-15" value="" style="rounded=1;whiteSpace=wrap;html=1;fillColor=#FFF9E6;" vertex="1" parent="1">
          <mxGeometry x="1200" y="190" width="120" height="60" as="geometry" />
        </mxCell>
        <mxCell id="fRjeeRejCwsMr5DVCLFa-16" value="" style="rounded=1;whiteSpace=wrap;html=1;fillColor=#FFF9E6;" vertex="1" parent="1">
          <mxGeometry x="1210" y="200" width="120" height="60" as="geometry" />
        </mxCell>
        <mxCell id="fRjeeRejCwsMr5DVCLFa-17" value="" style="rounded=1;whiteSpace=wrap;html=1;fillColor=#FFF9E6;" vertex="1" parent="1">
          <mxGeometry x="1220" y="210" width="120" height="60" as="geometry" />
        </mxCell>
        <mxCell id="fRjeeRejCwsMr5DVCLFa-18" value="" style="rounded=1;whiteSpace=wrap;html=1;fillColor=#FFF9E6;" vertex="1" parent="1">
          <mxGeometry x="1230" y="220" width="120" height="60" as="geometry" />
        </mxCell>
        <mxCell id="fRjeeRejCwsMr5DVCLFa-19" value="" style="rounded=1;whiteSpace=wrap;html=1;fillColor=#FFF9E6;" vertex="1" parent="1">
          <mxGeometry x="1240" y="230" width="120" height="60" as="geometry" />
        </mxCell>
        <mxCell id="fRjeeRejCwsMr5DVCLFa-20" value="" style="rounded=1;whiteSpace=wrap;html=1;fillColor=#FFF9E6;" vertex="1" parent="1">
          <mxGeometry x="1250" y="240" width="120" height="60" as="geometry" />
        </mxCell>
        <mxCell id="fRjeeRejCwsMr5DVCLFa-21" value="" style="rounded=1;whiteSpace=wrap;html=1;fillColor=#FFF9E6;" vertex="1" parent="1">
          <mxGeometry x="1260" y="250" width="120" height="60" as="geometry" />
        </mxCell>
        <mxCell id="fRjeeRejCwsMr5DVCLFa-22" value="" style="rounded=1;whiteSpace=wrap;html=1;fillColor=#FFF9E6;" vertex="1" parent="1">
          <mxGeometry x="1270" y="260" width="120" height="60" as="geometry" />
        </mxCell>
        <mxCell id="fRjeeRejCwsMr5DVCLFa-23" value="" style="rounded=1;whiteSpace=wrap;html=1;fillColor=#FFF9E6;" vertex="1" parent="1">
          <mxGeometry x="1280" y="270" width="120" height="60" as="geometry" />
        </mxCell>
        <mxCell id="fRjeeRejCwsMr5DVCLFa-24" value="" style="rounded=1;whiteSpace=wrap;html=1;fillColor=#FFF9E6;" vertex="1" parent="1">
          <mxGeometry x="1290" y="280" width="120" height="60" as="geometry" />
        </mxCell>
        <mxCell id="fRjeeRejCwsMr5DVCLFa-25" value="" style="rounded=1;whiteSpace=wrap;html=1;fillColor=#FFF9E6;" vertex="1" parent="1">
          <mxGeometry x="1300" y="290" width="120" height="60" as="geometry" />
        </mxCell>
        <mxCell id="fRjeeRejCwsMr5DVCLFa-26" value="" style="rounded=1;whiteSpace=wrap;html=1;fillColor=#FFF9E6;" vertex="1" parent="1">
          <mxGeometry x="1310" y="300" width="120" height="60" as="geometry" />
        </mxCell>
        <mxCell id="fRjeeRejCwsMr5DVCLFa-27" value="" style="rounded=1;whiteSpace=wrap;html=1;fillColor=#FFF9E6;" vertex="1" parent="1">
          <mxGeometry x="1320" y="310" width="120" height="60" as="geometry" />
        </mxCell>
        <mxCell id="fRjeeRejCwsMr5DVCLFa-28" value="" style="rounded=1;whiteSpace=wrap;html=1;fillColor=#FFF9E6;" vertex="1" parent="1">
          <mxGeometry x="1330" y="320" width="120" height="60" as="geometry" />
        </mxCell>
        <mxCell id="fRjeeRejCwsMr5DVCLFa-29" value="" style="rounded=1;whiteSpace=wrap;html=1;fillColor=#FFF9E6;" vertex="1" parent="1">
          <mxGeometry x="1340" y="330" width="120" height="60" as="geometry" />
        </mxCell>
        <mxCell id="fRjeeRejCwsMr5DVCLFa-30" value="" style="rounded=1;whiteSpace=wrap;html=1;fillColor=#FFF9E6;" vertex="1" parent="1">
          <mxGeometry x="1350" y="340" width="120" height="60" as="geometry" />
        </mxCell>
        <mxCell id="fRjeeRejCwsMr5DVCLFa-31" value="" style="rounded=1;whiteSpace=wrap;html=1;fillColor=#FFF9E6;" vertex="1" parent="1">
          <mxGeometry x="1360" y="350" width="120" height="60" as="geometry" />
        </mxCell>
        <mxCell id="fRjeeRejCwsMr5DVCLFa-32" value="" style="rounded=1;whiteSpace=wrap;html=1;fillColor=#FFF9E6;" vertex="1" parent="1">
          <mxGeometry x="1370" y="360" width="120" height="60" as="geometry" />
        </mxCell>
        <mxCell id="fRjeeRejCwsMr5DVCLFa-33" value="" style="rounded=1;whiteSpace=wrap;html=1;fillColor=#FFF9E6;" vertex="1" parent="1">
          <mxGeometry x="1380" y="370" width="120" height="60" as="geometry" />
        </mxCell>
        <mxCell id="fRjeeRejCwsMr5DVCLFa-34" value="" style="rounded=1;whiteSpace=wrap;html=1;fillColor=#FFF9E6;" vertex="1" parent="1">
          <mxGeometry x="1390" y="380" width="120" height="60" as="geometry" />
        </mxCell>
        <mxCell id="fRjeeRejCwsMr5DVCLFa-35" value="" style="rounded=1;whiteSpace=wrap;html=1;fillColor=#FFF9E6;" vertex="1" parent="1">
          <mxGeometry x="1400" y="390" width="120" height="60" as="geometry" />
        </mxCell>
        <mxCell id="fRjeeRejCwsMr5DVCLFa-36" value="" style="rounded=1;whiteSpace=wrap;html=1;fillColor=#FFF9E6;" vertex="1" parent="1">
          <mxGeometry x="1410" y="400" width="120" height="60" as="geometry" />
        </mxCell>
        <mxCell id="fRjeeRejCwsMr5DVCLFa-37" value="" style="rounded=1;whiteSpace=wrap;html=1;fillColor=#FFF9E6;" vertex="1" parent="1">
          <mxGeometry x="1420" y="410" width="120" height="60" as="geometry" />
        </mxCell>
        <mxCell id="fRjeeRejCwsMr5DVCLFa-38" value="" style="rounded=1;whiteSpace=wrap;html=1;fillColor=#FFF9E6;" vertex="1" parent="1">
          <mxGeometry x="1430" y="420" width="120" height="60" as="geometry" />
        </mxCell>
        <mxCell id="fRjeeRejCwsMr5DVCLFa-39" value="" style="rounded=1;whiteSpace=wrap;html=1;fillColor=#FFF9E6;" vertex="1" parent="1">
          <mxGeometry x="1440" y="430" width="120" height="60" as="geometry" />
        </mxCell>
        <mxCell id="fRjeeRejCwsMr5DVCLFa-40" value="" style="rounded=1;whiteSpace=wrap;html=1;fillColor=#FFF9E6;" vertex="1" parent="1">
          <mxGeometry x="1450" y="440" width="120" height="60" as="geometry" />
        </mxCell>
        <mxCell id="fRjeeRejCwsMr5DVCLFa-41" value="" style="rounded=1;whiteSpace=wrap;html=1;fillColor=#FFF9E6;" vertex="1" parent="1">
          <mxGeometry x="1460" y="450" width="120" height="60" as="geometry" />
        </mxCell>
        <mxCell id="fRjeeRejCwsMr5DVCLFa-42" value="" style="rounded=1;whiteSpace=wrap;html=1;fillColor=#FFF9E6;" vertex="1" parent="1">
          <mxGeometry x="1470" y="460" width="120" height="60" as="geometry" />
        </mxCell>
        <mxCell id="fRjeeRejCwsMr5DVCLFa-43" value="" style="rounded=1;whiteSpace=wrap;html=1;fillColor=#FFF9E6;" vertex="1" parent="1">
          <mxGeometry x="1480" y="470" width="120" height="60" as="geometry" />
        </mxCell>
        <mxCell id="fRjeeRejCwsMr5DVCLFa-44" value="" style="rounded=1;whiteSpace=wrap;html=1;fillColor=#FFF9E6;" vertex="1" parent="1">
          <mxGeometry x="1490" y="480" width="120" height="60" as="geometry" />
        </mxCell>
        <mxCell id="fRjeeRejCwsMr5DVCLFa-45" value="" style="rounded=1;whiteSpace=wrap;html=1;fillColor=#FFF9E6;" vertex="1" parent="1">
          <mxGeometry x="1500" y="490" width="120" height="60" as="geometry" />
        </mxCell>
        <mxCell id="fRjeeRejCwsMr5DVCLFa-46" value="" style="rounded=1;whiteSpace=wrap;html=1;fillColor=#FFF9E6;" vertex="1" parent="1">
          <mxGeometry x="1510" y="500" width="120" height="60" as="geometry" />
        </mxCell>
        <mxCell id="fRjeeRejCwsMr5DVCLFa-47" value="" style="rounded=1;whiteSpace=wrap;html=1;fillColor=#FFF9E6;" vertex="1" parent="1">
          <mxGeometry x="1520" y="510" width="120" height="60" as="geometry" />
        </mxCell>
        <mxCell id="fRjeeRejCwsMr5DVCLFa-48" value="" style="rounded=1;whiteSpace=wrap;html=1;fillColor=#FFF9E6;" vertex="1" parent="1">
          <mxGeometry x="1530" y="520" width="120" height="60" as="geometry" />
        </mxCell>
        <mxCell id="fRjeeRejCwsMr5DVCLFa-49" value="" style="rounded=1;whiteSpace=wrap;html=1;fillColor=#FFF9E6;" vertex="1" parent="1">
          <mxGeometry x="1540" y="530" width="120" height="60" as="geometry" />
        </mxCell>
        <mxCell id="fRjeeRejCwsMr5DVCLFa-50" value="" style="rounded=1;whiteSpace=wrap;html=1;fillColor=#FFF9E6;" vertex="1" parent="1">
          <mxGeometry x="1550" y="540" width="120" height="60" as="geometry" />
        </mxCell>
        <mxCell id="fRjeeRejCwsMr5DVCLFa-51" value="" style="rounded=1;whiteSpace=wrap;html=1;fillColor=#FFF9E6;" vertex="1" parent="1">
          <mxGeometry x="1560" y="550" width="120" height="60" as="geometry" />
        </mxCell>
        <mxCell id="fRjeeRejCwsMr5DVCLFa-52" value="" style="rounded=1;whiteSpace=wrap;html=1;fillColor=#FFF9E6;" vertex="1" parent="1">
          <mxGeometry x="1570" y="560" width="120" height="60" as="geometry" />
        </mxCell>
        <mxCell id="fRjeeRejCwsMr5DVCLFa-53" value="" style="rounded=1;whiteSpace=wrap;html=1;fillColor=#FFF9E6;" vertex="1" parent="1">
          <mxGeometry x="1580" y="570" width="120" height="60" as="geometry" />
        </mxCell>
        <mxCell id="fRjeeRejCwsMr5DVCLFa-54" value="" style="rounded=1;whiteSpace=wrap;html=1;fillColor=#FFF9E6;" vertex="1" parent="1">
          <mxGeometry x="1590" y="580" width="120" height="60" as="geometry" />
        </mxCell>
        <mxCell id="fRjeeRejCwsMr5DVCLFa-55" value="" style="rounded=1;whiteSpace=wrap;html=1;fillColor=#FFF9E6;" vertex="1" parent="1">
          <mxGeometry x="1600" y="590" width="120" height="60" as="geometry" />
        </mxCell>
        <mxCell id="fRjeeRejCwsMr5DVCLFa-56" value="" style="rounded=1;whiteSpace=wrap;html=1;fillColor=#FFF9E6;" vertex="1" parent="1">
          <mxGeometry x="1610" y="600" width="120" height="60" as="geometry" />
        </mxCell>
        <mxCell id="fRjeeRejCwsMr5DVCLFa-57" value="" style="rounded=1;whiteSpace=wrap;html=1;fillColor=#FFF9E6;" vertex="1" parent="1">
          <mxGeometry x="1620" y="610" width="120" height="60" as="geometry" />
        </mxCell>
        <mxCell id="fRjeeRejCwsMr5DVCLFa-58" value="" style="rounded=1;whiteSpace=wrap;html=1;fillColor=#FFF9E6;" vertex="1" parent="1">
          <mxGeometry x="980" y="540" width="120" height="60" as="geometry" />
        </mxCell>
        <mxCell id="fRjeeRejCwsMr5DVCLFa-70" value="User" style="text;html=1;strokeColor=none;fillColor=none;align=center;verticalAlign=middle;whiteSpace=wrap;rounded=0;" vertex="1" parent="1">
          <mxGeometry x="130" y="20" width="40" height="20" as="geometry" />
        </mxCell>
        <mxCell id="fRjeeRejCwsMr5DVCLFa-71" value="" style="endArrow=none;html=1;" edge="1" parent="1">
          <mxGeometry width="50" height="50" relative="1" as="geometry">
            <mxPoint x="240" y="460" as="sourcePoint" />
            <mxPoint x="240" as="targetPoint" />
          </mxGeometry>
        </mxCell>
        <mxCell id="fRjeeRejCwsMr5DVCLFa-72" value="" style="endArrow=classic;html=1;exitX=1;exitY=0.5;exitDx=0;exitDy=0;" edge="1" parent="1" source="fRjeeRejCwsMr5DVCLFa-1">
          <mxGeometry width="50" height="50" relative="1" as="geometry">
            <mxPoint y="240" as="sourcePoint" />
            <mxPoint x="80" y="80" as="targetPoint" />
          </mxGeometry>
        </mxCell>
      </root>
    </mxGraphModel>
  </diagram>
</mxfile>
